<?xml version="1.0" encoding="UTF-8"?> <svg xmlns="http://www.w3.org/2000/svg" width="280" height="60.062" viewBox="0 0 280 60.062"><g id="Group_76" data-name="Group 76" transform="translate(-646.342 -472.72)"><g id="Group_2" data-name="Group 2" transform="translate(693.477 472.948)"><path id="Path_2" data-name="Path 2" d="M797.1,474.635v36.34a40.582,40.582,0,0,1-.38,5.854,25.357,25.357,0,0,1-1.064,4.562,14.348,14.348,0,0,1-2.851,4.675,19.149,19.149,0,0,1-4.676,3.763,24.767,24.767,0,0,1-6.2,2.509,31.21,31.21,0,0,1-15.851-.228,22.768,22.768,0,0,1-6.652-3.155,18.363,18.363,0,0,1-4.675-4.714,15.636,15.636,0,0,1-2.433-5.892h15.51q1.443,3.877,6.538,3.877a8.759,8.759,0,0,0,6.652-2.433,9.412,9.412,0,0,0,2.319-6.766V509.3a23.025,23.025,0,0,1-2.927,2.395,16.605,16.605,0,0,1-2.851,1.559,13.628,13.628,0,0,1-3.041.874,21.353,21.353,0,0,1-3.5.266,19.93,19.93,0,0,1-7.678-1.444,17.737,17.737,0,0,1-10-10.225,21.908,21.908,0,0,1-1.406-8.021,22.4,22.4,0,0,1,1.52-8.325,21.421,21.421,0,0,1,4.143-6.691,19.057,19.057,0,0,1,6.234-4.485,18.859,18.859,0,0,1,7.869-1.635,15.123,15.123,0,0,1,11.632,5.17v-4.105Zm-30.867,19.31a9.1,9.1,0,0,0,2.547,6.386,8.337,8.337,0,0,0,2.813,1.9,9.052,9.052,0,0,0,3.535.685,8.862,8.862,0,0,0,3.459-.685,8.353,8.353,0,0,0,2.813-1.9,9.67,9.67,0,0,0,1.9-2.851,8.736,8.736,0,0,0,0-6.956,9.481,9.481,0,0,0-1.939-2.813,8.818,8.818,0,0,0-2.85-1.9,8.687,8.687,0,0,0-3.384-.684,8.208,8.208,0,0,0-3.421.722,9.826,9.826,0,0,0-2.813,1.9,8.957,8.957,0,0,0-1.939,2.775A8.194,8.194,0,0,0,766.237,493.946Z" transform="translate(-751.945 -473.419)" fill="#323232"></path><path id="Path_3" data-name="Path 3" d="M911.223,474.635v36.34a40.652,40.652,0,0,1-.38,5.854,25.347,25.347,0,0,1-1.064,4.562,14.344,14.344,0,0,1-2.851,4.675,19.153,19.153,0,0,1-4.676,3.763,24.764,24.764,0,0,1-6.2,2.509,31.21,31.21,0,0,1-15.851-.228,22.768,22.768,0,0,1-6.652-3.155,18.351,18.351,0,0,1-4.675-4.714,15.619,15.619,0,0,1-2.433-5.892h15.51q1.443,3.877,6.538,3.877a8.76,8.76,0,0,0,6.652-2.433,9.413,9.413,0,0,0,2.319-6.766V509.3a23.06,23.06,0,0,1-2.927,2.395,16.6,16.6,0,0,1-2.851,1.559,13.61,13.61,0,0,1-3.041.874,21.346,21.346,0,0,1-3.5.266,19.929,19.929,0,0,1-7.678-1.444,17.736,17.736,0,0,1-10-10.225,21.918,21.918,0,0,1-1.406-8.021,22.388,22.388,0,0,1,1.52-8.325,21.417,21.417,0,0,1,4.143-6.691,19.052,19.052,0,0,1,6.234-4.485,18.855,18.855,0,0,1,7.868-1.635,15.124,15.124,0,0,1,11.632,5.17v-4.105Zm-30.866,19.31a9.1,9.1,0,0,0,2.547,6.386,8.333,8.333,0,0,0,2.813,1.9,9.051,9.051,0,0,0,3.535.685,8.862,8.862,0,0,0,3.459-.685,8.357,8.357,0,0,0,2.813-1.9,9.677,9.677,0,0,0,1.9-2.851,8.736,8.736,0,0,0,0-6.956,9.49,9.49,0,0,0-1.939-2.813,8.814,8.814,0,0,0-2.851-1.9,8.685,8.685,0,0,0-3.383-.684,8.211,8.211,0,0,0-3.421.722,9.83,9.83,0,0,0-2.813,1.9,8.956,8.956,0,0,0-1.939,2.775A8.2,8.2,0,0,0,880.357,493.946Z" transform="translate(-815.128 -473.419)" fill="#323232"></path><path id="Path_4" data-name="Path 4" d="M1011.126,487.067a12.736,12.736,0,0,0-7.223-2.433,9.833,9.833,0,0,0-3.687.684,9.135,9.135,0,0,0-3,1.938,8.9,8.9,0,0,0-2.015,2.965,9.772,9.772,0,0,0-.722,3.839,9.568,9.568,0,0,0,.722,3.764,9.2,9.2,0,0,0,1.977,2.965,8.639,8.639,0,0,0,3,1.939,10.134,10.134,0,0,0,3.725.684,11.375,11.375,0,0,0,7.223-2.661V512.46a24.344,24.344,0,0,1-9.655,2.2,22.818,22.818,0,0,1-8.1-1.444,20.271,20.271,0,0,1-11.442-10.606,19.685,19.685,0,0,1-1.749-8.4,21,21,0,0,1,1.673-8.478,20.285,20.285,0,0,1,4.561-6.614,20.651,20.651,0,0,1,6.881-4.333,23.32,23.32,0,0,1,8.553-1.558,20.467,20.467,0,0,1,9.275,2.128Z" transform="translate(-878.31 -473.231)" fill="#323232"></path><path id="Path_5" data-name="Path 5" d="M1076.211,475.956v21.971q0,7.223,6.994,7.223t6.995-7.223V475.956h13.761v24.632q0,7.908-5.208,11.86T1083.2,516.4q-10.339,0-15.547-3.953t-5.208-11.86V475.956Z" transform="translate(-923.857 -474.74)" fill="#323232"></path><path id="Path_6" data-name="Path 6" d="M1185.561,532.911H1171.8V474.447h13.761v4.333a14.518,14.518,0,0,1,12.012-5.549,18.679,18.679,0,0,1,7.793,1.635,19.793,19.793,0,0,1,6.272,4.447,20.215,20.215,0,0,1,4.144,6.614,22.211,22.211,0,0,1,1.482,8.135,21.611,21.611,0,0,1-1.482,8.059,20.711,20.711,0,0,1-4.106,6.538,18.813,18.813,0,0,1-13.95,6.006,16.245,16.245,0,0,1-12.164-5.018Zm17.334-38.85a9.344,9.344,0,0,0-.647-3.459,8.326,8.326,0,0,0-1.862-2.851,9.346,9.346,0,0,0-2.851-1.939,8.955,8.955,0,0,0-6.956-.038,8.465,8.465,0,0,0-2.775,1.9,9.659,9.659,0,0,0-1.9,2.851,8.455,8.455,0,0,0-.722,3.46,8.586,8.586,0,0,0,.685,3.421,8.433,8.433,0,0,0,1.9,2.775,9.617,9.617,0,0,0,2.851,1.9,8.455,8.455,0,0,0,3.459.722,8.6,8.6,0,0,0,3.421-.684,8.466,8.466,0,0,0,2.775-1.9,9.858,9.858,0,0,0,1.9-2.813A8.044,8.044,0,0,0,1202.9,494.061Z" transform="translate(-984.399 -473.231)" fill="#323232"></path></g><g id="Group_37" data-name="Group 37" transform="translate(646.342 472.72)"><path id="Path_1" data-name="Path 1" d="M660.255,495.984q0,8.894,8.362,8.895a7.47,7.47,0,0,0,6.767-3.649h13.3q-4.03,13.382-20.147,13.38a26.467,26.467,0,0,1-9.047-1.482,20.187,20.187,0,0,1-7.032-4.22,18.79,18.79,0,0,1-4.524-6.538,21.781,21.781,0,0,1-1.6-8.515,24.089,24.089,0,0,1,1.52-8.781,18.466,18.466,0,0,1,4.333-6.652,19.188,19.188,0,0,1,6.8-4.22,25.73,25.73,0,0,1,9.009-1.482,25.184,25.184,0,0,1,8.9,1.482,18.02,18.02,0,0,1,6.69,4.3,18.681,18.681,0,0,1,4.182,6.881,27.284,27.284,0,0,1,1.444,9.161v1.445ZM676.372,488a8.286,8.286,0,0,0-2.813-4.638,8.725,8.725,0,0,0-10.378-.076A7.569,7.569,0,0,0,660.635,488Z" transform="translate(-646.342 -472.72)" fill="#323232"></path><path id="Path_7" data-name="Path 7" d="M690.637,573.886a22.811,22.811,0,0,1-.8,3.043,14.384,14.384,0,0,1-2.851,4.674,19.14,19.14,0,0,1-4.674,3.765,24.735,24.735,0,0,1-6.2,2.508,31.193,31.193,0,0,1-15.852-.227,22.861,22.861,0,0,1-6.652-3.154,18.417,18.417,0,0,1-4.674-4.714,15.656,15.656,0,0,1-2.433-5.894Z" transform="translate(-646.43 -528.731)" fill="#323232"></path></g></g></svg> 